<svg width="1200" height="400" viewBox="0 0 10 10" fill="none" xmlns="http://www.w3.org/2000/svg">
    <path
        d="M1.51549 21.3612H28.7943L39.0996 38.0946L49.4049 21.3612H76.9868L54.0524 55.2337L79.1085 92.4529H51.0215L39.0996 74.0968L27.3798 92.4529H0L24.854 56.3493L1.51549 21.3612ZM83.61 92.4529V21.4626H117.658C124.259 21.4626 129.95 22.5445 134.732 24.7079C139.582 26.8713 143.32 29.9815 145.947 34.038C148.574 38.0269 149.887 42.7597 149.887 48.2361C149.887 53.7125 148.574 58.4453 145.947 62.4341C143.32 66.423 139.582 69.5332 134.732 71.7643C129.95 73.9276 124.259 75.0096 117.658 75.0096C117.658 75.0096 104.973 75.0096 96.8453 75.0096C88.1562 75.0096 107.454 64.7667 107.454 64.7667V68.2275V56.5521V92.4529H83.61ZM107.454 67.4035L96.8453 56.5521H116.143C119.443 56.5521 121.868 55.8085 123.417 54.321C125.033 52.8334 125.842 50.8051 125.842 48.2361C125.842 45.6671 125.033 43.6388 123.417 42.1512C121.868 40.6637 119.443 39.9201 116.143 39.9201H96.8453L107.454 29.0687V67.4035ZM194.069 94.0755C188.344 94.0755 183.023 93.1628 178.106 91.3373C173.257 89.5118 169.047 86.9428 165.477 83.6298C161.908 80.2495 159.112 76.2943 157.091 71.7643C155.138 67.2343 154.162 62.2991 154.162 56.9578C154.162 51.5491 155.138 46.6135 157.091 42.1512C159.112 37.6212 161.908 33.7002 165.477 30.3871C169.047 27.0068 173.257 24.4037 178.106 22.5782C183.023 20.7527 188.344 19.84 194.069 19.84C199.862 19.84 205.183 20.7527 210.033 22.5782C214.882 24.4037 219.092 27.0068 222.662 30.3871C226.231 33.7002 228.993 37.6212 230.946 42.1512C232.967 46.6135 233.977 51.5491 233.977 56.9578C233.977 62.2991 232.967 67.2343 230.946 71.7643C228.993 76.2943 226.231 80.2495 222.662 83.6298C219.092 86.9428 214.882 89.5118 210.033 91.3373C205.183 93.1628 199.862 94.0755 194.069 94.0755ZM194.069 74.7053C196.292 74.7053 198.346 74.2997 200.232 73.4883C202.186 72.677 203.87 71.5278 205.284 70.0402C206.766 68.4854 207.911 66.6258 208.719 64.4624C209.527 62.2313 209.932 59.7296 209.932 56.9578C209.932 54.1859 209.527 51.7178 208.719 49.5545C207.911 47.3234 206.766 45.4642 205.284 43.9767C203.87 42.4218 202.186 41.2385 200.232 40.4272C198.346 39.6159 196.292 39.2102 194.069 39.2102C191.847 39.2102 189.759 39.6159 187.805 40.4272C185.919 41.2385 184.236 42.4218 182.754 43.9767C181.339 45.4642 180.228 47.3234 179.42 49.5545C178.611 51.7178 178.207 54.1859 178.207 56.9578C178.207 59.7296 178.611 62.2313 179.42 64.4624C180.228 66.6258 181.339 68.4854 182.754 70.0402C184.236 71.5278 185.919 72.677 187.805 73.4883C189.759 74.2997 191.847 74.7053 194.069 74.7053ZM242.559 92.4529V21.4626H262.159L290.448 67.8091H280.143L307.624 21.4626H327.224L327.426 92.4529H305.704L305.502 54.321H308.937L290.145 86.0638H279.638L260.037 54.321H264.281V92.4529H242.559Z"
        fill="white" />
    <path
        d="M5.18 14.84L0.54 0.84H3.24L7.38 13.5H6.04L10.34 0.84H12.74L16.92 13.5H15.62L19.86 0.84H22.34L17.7 14.84H14.94L11.12 3.42H11.84L7.96 14.84H5.18Z"
        fill="white" />
    <path
        d="M28.4373 14.98C27.2507 14.98 26.2107 14.7467 25.3173 14.28C24.4373 13.8 23.7507 13.1467 23.2573 12.32C22.7773 11.4933 22.5373 10.5533 22.5373 9.5C22.5373 8.43333 22.7707 7.49333 23.2373 6.68C23.7173 5.85333 24.3707 5.20667 25.1973 4.74C26.0373 4.27333 26.9907 4.04 28.0573 4.04C29.0973 4.04 30.024 4.26667 30.8373 4.72C31.6507 5.17333 32.2907 5.81333 32.7573 6.64C33.224 7.46667 33.4573 8.44 33.4573 9.56C33.4573 9.66667 33.4507 9.78667 33.4373 9.92C33.4373 10.0533 33.4307 10.18 33.4173 10.3H24.5173V8.64H32.0973L31.1173 9.16C31.1307 8.54667 31.004 8.00667 30.7373 7.54C30.4707 7.07333 30.104 6.70667 29.6373 6.44C29.184 6.17333 28.6573 6.04 28.0573 6.04C27.444 6.04 26.904 6.17333 26.4373 6.44C25.984 6.70667 25.624 7.08 25.3573 7.56C25.104 8.02667 24.9773 8.58 24.9773 9.22V9.62C24.9773 10.26 25.124 10.8267 25.4173 11.32C25.7107 11.8133 26.124 12.1933 26.6573 12.46C27.1907 12.7267 27.804 12.86 28.4973 12.86C29.0973 12.86 29.6373 12.7667 30.1173 12.58C30.5973 12.3933 31.024 12.1 31.3973 11.7L32.7373 13.24C32.2573 13.8 31.6507 14.2333 30.9173 14.54C30.1973 14.8333 29.3707 14.98 28.4373 14.98Z"
        fill="white" />
    <path d="M35.8587 14.84V0H38.3587V14.84H35.8587Z" fill="white" />
    <path
        d="M46.54 14.98C45.42 14.98 44.42 14.7467 43.54 14.28C42.6733 13.8 41.9933 13.1467 41.5 12.32C41.0067 11.4933 40.76 10.5533 40.76 9.5C40.76 8.43333 41.0067 7.49333 41.5 6.68C41.9933 5.85333 42.6733 5.20667 43.54 4.74C44.42 4.27333 45.42 4.04 46.54 4.04C47.58 4.04 48.4933 4.25333 49.28 4.68C50.08 5.09333 50.6867 5.70667 51.1 6.52L49.18 7.64C48.86 7.13333 48.4667 6.76 48 6.52C47.5467 6.28 47.0533 6.16 46.52 6.16C45.9067 6.16 45.3533 6.29333 44.86 6.56C44.3667 6.82667 43.98 7.21333 43.7 7.72C43.42 8.21333 43.28 8.80667 43.28 9.5C43.28 10.1933 43.42 10.7933 43.7 11.3C43.98 11.7933 44.3667 12.1733 44.86 12.44C45.3533 12.7067 45.9067 12.84 46.52 12.84C47.0533 12.84 47.5467 12.72 48 12.48C48.4667 12.24 48.86 11.8667 49.18 11.36L51.1 12.48C50.6867 13.28 50.08 13.9 49.28 14.34C48.4933 14.7667 47.58 14.98 46.54 14.98Z"
        fill="white" />
    <path
        d="M57.9048 14.98C56.8115 14.98 55.8382 14.7467 54.9848 14.28C54.1315 13.8 53.4582 13.1467 52.9648 12.32C52.4715 11.4933 52.2248 10.5533 52.2248 9.5C52.2248 8.43333 52.4715 7.49333 52.9648 6.68C53.4582 5.85333 54.1315 5.20667 54.9848 4.74C55.8382 4.27333 56.8115 4.04 57.9048 4.04C59.0115 4.04 59.9915 4.27333 60.8448 4.74C61.7115 5.20667 62.3848 5.84667 62.8648 6.66C63.3582 7.47333 63.6048 8.42 63.6048 9.5C63.6048 10.5533 63.3582 11.4933 62.8648 12.32C62.3848 13.1467 61.7115 13.8 60.8448 14.28C59.9915 14.7467 59.0115 14.98 57.9048 14.98ZM57.9048 12.84C58.5182 12.84 59.0648 12.7067 59.5448 12.44C60.0248 12.1733 60.3982 11.7867 60.6648 11.28C60.9448 10.7733 61.0848 10.18 61.0848 9.5C61.0848 8.80667 60.9448 8.21333 60.6648 7.72C60.3982 7.21333 60.0248 6.82667 59.5448 6.56C59.0648 6.29333 58.5248 6.16 57.9248 6.16C57.3115 6.16 56.7648 6.29333 56.2848 6.56C55.8182 6.82667 55.4448 7.21333 55.1648 7.72C54.8848 8.21333 54.7448 8.80667 54.7448 9.5C54.7448 10.18 54.8848 10.7733 55.1648 11.28C55.4448 11.7867 55.8182 12.1733 56.2848 12.44C56.7648 12.7067 57.3048 12.84 57.9048 12.84Z"
        fill="white" />
    <path
        d="M79.4755 4.04C80.3288 4.04 81.0821 4.20667 81.7355 4.54C82.4021 4.87333 82.9221 5.38667 83.2955 6.08C83.6688 6.76 83.8555 7.64 83.8555 8.72V14.84H81.3555V9.04C81.3555 8.09333 81.1488 7.38667 80.7355 6.92C80.3221 6.45333 79.7288 6.22 78.9555 6.22C78.4088 6.22 77.9221 6.34 77.4955 6.58C77.0821 6.82 76.7555 7.17333 76.5155 7.64C76.2888 8.10667 76.1755 8.7 76.1755 9.42V14.84H73.6755V9.04C73.6755 8.09333 73.4688 7.38667 73.0555 6.92C72.6421 6.45333 72.0488 6.22 71.2755 6.22C70.7288 6.22 70.2421 6.34 69.8155 6.58C69.4021 6.82 69.0755 7.17333 68.8355 7.64C68.6088 8.10667 68.4955 8.7 68.4955 9.42V14.84H65.9955V4.16H68.3755V7L67.9555 6.16C68.3155 5.46667 68.8355 4.94 69.5155 4.58C70.2088 4.22 70.9955 4.04 71.8755 4.04C72.8755 4.04 73.7421 4.28667 74.4755 4.78C75.2221 5.27333 75.7155 6.02 75.9555 7.02L74.9755 6.68C75.3221 5.88 75.8955 5.24 76.6955 4.76C77.4955 4.28 78.4221 4.04 79.4755 4.04Z"
        fill="white" />
    <path
        d="M92.0897 14.98C90.903 14.98 89.863 14.7467 88.9697 14.28C88.0897 13.8 87.403 13.1467 86.9097 12.32C86.4297 11.4933 86.1897 10.5533 86.1897 9.5C86.1897 8.43333 86.423 7.49333 86.8897 6.68C87.3697 5.85333 88.023 5.20667 88.8497 4.74C89.6897 4.27333 90.643 4.04 91.7097 4.04C92.7497 4.04 93.6764 4.26667 94.4897 4.72C95.303 5.17333 95.943 5.81333 96.4097 6.64C96.8764 7.46667 97.1097 8.44 97.1097 9.56C97.1097 9.66667 97.103 9.78667 97.0897 9.92C97.0897 10.0533 97.083 10.18 97.0697 10.3H88.1697V8.64H95.7497L94.7697 9.16C94.783 8.54667 94.6564 8.00667 94.3897 7.54C94.123 7.07333 93.7564 6.70667 93.2897 6.44C92.8364 6.17333 92.3097 6.04 91.7097 6.04C91.0964 6.04 90.5564 6.17333 90.0897 6.44C89.6364 6.70667 89.2764 7.08 89.0097 7.56C88.7564 8.02667 88.6297 8.58 88.6297 9.22V9.62C88.6297 10.26 88.7764 10.8267 89.0697 11.32C89.363 11.8133 89.7764 12.1933 90.3097 12.46C90.843 12.7267 91.4564 12.86 92.1497 12.86C92.7497 12.86 93.2897 12.7667 93.7697 12.58C94.2497 12.3933 94.6764 12.1 95.0497 11.7L96.3897 13.24C95.9097 13.8 95.303 14.2333 94.5697 14.54C93.8497 14.8333 93.023 14.98 92.0897 14.98Z"
        fill="white" />
    <path
        d="M109.058 14.98C107.885 14.98 106.978 14.68 106.338 14.08C105.698 13.4667 105.378 12.5667 105.378 11.38V1.8H107.878V11.32C107.878 11.8267 108.005 12.22 108.258 12.5C108.525 12.78 108.892 12.92 109.358 12.92C109.918 12.92 110.385 12.7733 110.758 12.48L111.458 14.26C111.165 14.5 110.805 14.68 110.378 14.8C109.952 14.92 109.512 14.98 109.058 14.98ZM103.618 6.24V4.24H110.738V6.24H103.618Z"
        fill="white" />
    <path
        d="M117.963 14.98C116.87 14.98 115.897 14.7467 115.043 14.28C114.19 13.8 113.517 13.1467 113.023 12.32C112.53 11.4933 112.283 10.5533 112.283 9.5C112.283 8.43333 112.53 7.49333 113.023 6.68C113.517 5.85333 114.19 5.20667 115.043 4.74C115.897 4.27333 116.87 4.04 117.963 4.04C119.07 4.04 120.05 4.27333 120.903 4.74C121.77 5.20667 122.443 5.84667 122.923 6.66C123.417 7.47333 123.663 8.42 123.663 9.5C123.663 10.5533 123.417 11.4933 122.923 12.32C122.443 13.1467 121.77 13.8 120.903 14.28C120.05 14.7467 119.07 14.98 117.963 14.98ZM117.963 12.84C118.577 12.84 119.123 12.7067 119.603 12.44C120.083 12.1733 120.457 11.7867 120.723 11.28C121.003 10.7733 121.143 10.18 121.143 9.5C121.143 8.80667 121.003 8.21333 120.723 7.72C120.457 7.21333 120.083 6.82667 119.603 6.56C119.123 6.29333 118.583 6.16 117.983 6.16C117.37 6.16 116.823 6.29333 116.343 6.56C115.877 6.82667 115.503 7.21333 115.223 7.72C114.943 8.21333 114.803 8.80667 114.803 9.5C114.803 10.18 114.943 10.7733 115.223 11.28C115.503 11.7867 115.877 12.1733 116.343 12.44C116.823 12.7067 117.363 12.84 117.963 12.84Z"
        fill="white" />
</svg>