<svg width="189" height="189" viewBox="0 0 189 189" fill="none" xmlns="http://www.w3.org/2000/svg">
    <path d="M0 0H159C175.569 0 189 13.4315 189 30V189H0V0Z" fill="#171BF9" />
    <path
        d="M99.7314 171V103.8H115.379L143.123 149.496H134.867L162.035 103.8H177.683L177.875 171H160.307L160.211 130.392H163.187L142.931 164.376H134.483L113.651 130.392H117.203V171H99.7314Z"
        fill="white" />
    <path
        d="M52.2242 172.344C46.8482 172.344 41.8882 171.48 37.3442 169.752C32.8002 168.024 28.8322 165.592 25.4402 162.456C22.1122 159.256 19.5202 155.544 17.6642 151.32C15.8082 147.096 14.8802 142.456 14.8802 137.4C14.8802 132.344 15.8082 127.704 17.6642 123.48C19.5202 119.256 22.1122 115.576 25.4402 112.44C28.8322 109.24 32.8002 106.776 37.3442 105.048C41.8882 103.32 46.8482 102.456 52.2242 102.456C57.6642 102.456 62.6242 103.32 67.1042 105.048C71.6482 106.776 75.5842 109.24 78.9122 112.44C82.2402 115.576 84.8322 119.256 86.6882 123.48C88.6082 127.704 89.5682 132.344 89.5682 137.4C89.5682 142.456 88.6082 147.128 86.6882 151.416C84.8322 155.64 82.2402 159.32 78.9122 162.456C75.5842 165.592 71.6482 168.024 67.1042 169.752C62.6242 171.48 57.6642 172.344 52.2242 172.344ZM52.2242 156.6C54.7842 156.6 57.1522 156.152 59.3282 155.256C61.5682 154.36 63.4882 153.08 65.0882 151.416C66.7522 149.688 68.0322 147.64 68.9282 145.272C69.8882 142.904 70.3682 140.28 70.3682 137.4C70.3682 134.456 69.8882 131.832 68.9282 129.528C68.0322 127.16 66.7522 125.144 65.0882 123.48C63.4882 121.752 61.5682 120.44 59.3282 119.544C57.1522 118.648 54.7842 118.2 52.2242 118.2C49.6642 118.2 47.2642 118.648 45.0242 119.544C42.8482 120.44 40.9282 121.752 39.2642 123.48C37.6642 125.144 36.3842 127.16 35.4242 129.528C34.5282 131.832 34.0802 134.456 34.0802 137.4C34.0802 140.28 34.5282 142.904 35.4242 145.272C36.3842 147.64 37.6642 149.688 39.2642 151.416C40.9282 153.08 42.8482 154.36 45.0242 155.256C47.2642 156.152 49.6642 156.6 52.2242 156.6Z"
        fill="white" />
    <path
        d="M100.166 87.9999V20.7999H130.886C137.03 20.7999 142.31 21.7919 146.726 23.7759C151.206 25.7599 154.662 28.6399 157.094 32.4159C159.526 36.1279 160.742 40.5439 160.742 45.6639C160.742 50.7199 159.526 55.1039 157.094 58.8159C154.662 62.5279 151.206 65.4079 146.726 67.4559C142.31 69.4399 137.03 70.4319 130.886 70.4319C130.886 70.4319 118.592 70.094 110.726 70.4319C97.5004 71.0001 119.174 62.1759 119.174 62.1759V87.9999H100.166ZM119.174 64.1919L110.726 55.4559H129.734C133.702 55.4559 136.646 54.5919 138.566 52.8639C140.55 51.1359 141.542 48.7359 141.542 45.6639C141.542 42.5279 140.55 40.0959 138.566 38.3679C136.646 36.6399 133.702 35.7759 129.734 35.7759H110.726L119.174 27.0399V64.1919Z"
        fill="white" />
    <path
        d="M14.1122 20.7041H35.9042L47.9042 38.9441L59.8082 20.7041H81.8882L59.8082 52.8641L83.8082 88.0001H61.4402L47.9042 68.1281L34.4642 88.0001H12.5762L36.4802 53.7281L14.1122 20.7041Z"
        fill="white" />
</svg>